<svg width="464" height="464" viewBox="0 0 464 464" fill="none" xmlns="http://www.w3.org/2000/svg">
<rect width="464" height="464" rx="232" fill="#949494"/>
<path d="M151.043 260.424H147.244V258.891H151.043C151.779 258.891 152.374 258.773 152.83 258.539C153.286 258.305 153.618 257.979 153.826 257.562C154.041 257.146 154.148 256.671 154.148 256.137C154.148 255.648 154.041 255.189 153.826 254.76C153.618 254.33 153.286 253.985 152.83 253.725C152.374 253.458 151.779 253.324 151.043 253.324H147.684V266H145.799V251.781H151.043C152.117 251.781 153.025 251.967 153.768 252.338C154.51 252.709 155.073 253.223 155.457 253.881C155.841 254.532 156.033 255.277 156.033 256.117C156.033 257.029 155.841 257.807 155.457 258.451C155.073 259.096 154.51 259.587 153.768 259.926C153.025 260.258 152.117 260.424 151.043 260.424ZM160.105 251V266H158.289V251H160.105ZM169.236 264.193V258.754C169.236 258.337 169.152 257.976 168.982 257.67C168.82 257.357 168.572 257.117 168.24 256.947C167.908 256.778 167.498 256.693 167.01 256.693C166.554 256.693 166.154 256.771 165.809 256.928C165.47 257.084 165.203 257.289 165.008 257.543C164.819 257.797 164.725 258.07 164.725 258.363H162.918C162.918 257.986 163.016 257.611 163.211 257.24C163.406 256.869 163.686 256.534 164.051 256.234C164.422 255.928 164.865 255.688 165.379 255.512C165.9 255.329 166.479 255.238 167.117 255.238C167.885 255.238 168.562 255.368 169.148 255.629C169.741 255.889 170.203 256.283 170.535 256.811C170.874 257.331 171.043 257.986 171.043 258.773V263.695C171.043 264.047 171.072 264.421 171.131 264.818C171.196 265.215 171.29 265.557 171.414 265.844V266H169.529C169.438 265.792 169.367 265.515 169.314 265.17C169.262 264.818 169.236 264.493 169.236 264.193ZM169.549 259.594L169.568 260.863H167.742C167.228 260.863 166.769 260.906 166.365 260.99C165.962 261.068 165.623 261.189 165.35 261.352C165.076 261.514 164.868 261.719 164.725 261.967C164.581 262.208 164.51 262.491 164.51 262.816C164.51 263.148 164.585 263.451 164.734 263.725C164.884 263.998 165.109 264.216 165.408 264.379C165.714 264.535 166.089 264.613 166.531 264.613C167.085 264.613 167.573 264.496 167.996 264.262C168.419 264.027 168.755 263.741 169.002 263.402C169.256 263.064 169.393 262.735 169.412 262.416L170.184 263.285C170.138 263.559 170.014 263.861 169.812 264.193C169.611 264.525 169.34 264.844 169.002 265.15C168.67 265.45 168.273 265.701 167.811 265.902C167.355 266.098 166.84 266.195 166.268 266.195C165.551 266.195 164.923 266.055 164.383 265.775C163.849 265.495 163.432 265.121 163.133 264.652C162.84 264.177 162.693 263.646 162.693 263.061C162.693 262.494 162.804 261.996 163.025 261.566C163.247 261.13 163.566 260.769 163.982 260.482C164.399 260.189 164.9 259.968 165.486 259.818C166.072 259.669 166.727 259.594 167.449 259.594H169.549ZM178.113 264.711C178.543 264.711 178.94 264.623 179.305 264.447C179.669 264.271 179.969 264.031 180.203 263.725C180.438 263.412 180.571 263.057 180.604 262.66H182.322C182.29 263.285 182.078 263.868 181.688 264.408C181.303 264.942 180.799 265.375 180.174 265.707C179.549 266.033 178.862 266.195 178.113 266.195C177.319 266.195 176.626 266.055 176.033 265.775C175.447 265.495 174.959 265.111 174.568 264.623C174.184 264.135 173.895 263.575 173.699 262.943C173.51 262.305 173.416 261.632 173.416 260.922V260.512C173.416 259.802 173.51 259.132 173.699 258.5C173.895 257.862 174.184 257.299 174.568 256.811C174.959 256.322 175.447 255.938 176.033 255.658C176.626 255.378 177.319 255.238 178.113 255.238C178.94 255.238 179.663 255.408 180.281 255.746C180.9 256.078 181.385 256.534 181.736 257.113C182.094 257.686 182.29 258.337 182.322 259.066H180.604C180.571 258.63 180.447 258.236 180.232 257.885C180.024 257.533 179.738 257.253 179.373 257.045C179.015 256.83 178.595 256.723 178.113 256.723C177.56 256.723 177.094 256.833 176.717 257.055C176.346 257.27 176.049 257.562 175.828 257.934C175.613 258.298 175.457 258.705 175.359 259.154C175.268 259.597 175.223 260.049 175.223 260.512V260.922C175.223 261.384 175.268 261.84 175.359 262.289C175.451 262.738 175.604 263.145 175.818 263.51C176.04 263.874 176.336 264.167 176.707 264.389C177.085 264.604 177.553 264.711 178.113 264.711ZM188.738 266.195C188.003 266.195 187.335 266.072 186.736 265.824C186.144 265.57 185.633 265.215 185.203 264.76C184.78 264.304 184.454 263.764 184.227 263.139C183.999 262.514 183.885 261.83 183.885 261.088V260.678C183.885 259.818 184.012 259.053 184.266 258.383C184.52 257.706 184.865 257.133 185.301 256.664C185.737 256.195 186.232 255.84 186.785 255.6C187.339 255.359 187.911 255.238 188.504 255.238C189.259 255.238 189.91 255.368 190.457 255.629C191.01 255.889 191.463 256.254 191.814 256.723C192.166 257.185 192.426 257.732 192.596 258.363C192.765 258.988 192.85 259.672 192.85 260.414V261.225H184.959V259.75H191.043V259.613C191.017 259.145 190.919 258.689 190.75 258.246C190.587 257.803 190.327 257.439 189.969 257.152C189.611 256.866 189.122 256.723 188.504 256.723C188.094 256.723 187.716 256.811 187.371 256.986C187.026 257.156 186.73 257.41 186.482 257.748C186.235 258.087 186.043 258.5 185.906 258.988C185.77 259.477 185.701 260.04 185.701 260.678V261.088C185.701 261.589 185.77 262.061 185.906 262.504C186.049 262.94 186.255 263.324 186.521 263.656C186.795 263.988 187.124 264.249 187.508 264.438C187.898 264.626 188.341 264.721 188.836 264.721C189.474 264.721 190.014 264.59 190.457 264.33C190.9 264.07 191.287 263.721 191.619 263.285L192.713 264.154C192.485 264.499 192.195 264.828 191.844 265.141C191.492 265.453 191.059 265.707 190.545 265.902C190.037 266.098 189.435 266.195 188.738 266.195ZM196.766 251V266H194.959V251H196.766ZM196.336 260.316L195.584 260.287C195.59 259.564 195.698 258.897 195.906 258.285C196.115 257.667 196.408 257.13 196.785 256.674C197.163 256.218 197.612 255.867 198.133 255.619C198.66 255.365 199.243 255.238 199.881 255.238C200.402 255.238 200.87 255.31 201.287 255.453C201.704 255.59 202.059 255.811 202.352 256.117C202.651 256.423 202.879 256.82 203.035 257.309C203.191 257.79 203.27 258.38 203.27 259.076V266H201.453V259.057C201.453 258.503 201.372 258.061 201.209 257.729C201.046 257.39 200.809 257.146 200.496 256.996C200.184 256.84 199.799 256.762 199.344 256.762C198.895 256.762 198.484 256.856 198.113 257.045C197.749 257.234 197.433 257.494 197.166 257.826C196.906 258.158 196.701 258.539 196.551 258.969C196.408 259.392 196.336 259.841 196.336 260.316ZM205.496 260.834V260.609C205.496 259.848 205.607 259.141 205.828 258.49C206.049 257.833 206.368 257.263 206.785 256.781C207.202 256.293 207.706 255.915 208.299 255.648C208.891 255.375 209.555 255.238 210.291 255.238C211.033 255.238 211.701 255.375 212.293 255.648C212.892 255.915 213.4 256.293 213.816 256.781C214.24 257.263 214.562 257.833 214.783 258.49C215.005 259.141 215.115 259.848 215.115 260.609V260.834C215.115 261.596 215.005 262.302 214.783 262.953C214.562 263.604 214.24 264.174 213.816 264.662C213.4 265.144 212.895 265.521 212.303 265.795C211.717 266.062 211.053 266.195 210.311 266.195C209.568 266.195 208.901 266.062 208.309 265.795C207.716 265.521 207.208 265.144 206.785 264.662C206.368 264.174 206.049 263.604 205.828 262.953C205.607 262.302 205.496 261.596 205.496 260.834ZM207.303 260.609V260.834C207.303 261.361 207.365 261.859 207.488 262.328C207.612 262.79 207.798 263.201 208.045 263.559C208.299 263.917 208.615 264.2 208.992 264.408C209.37 264.61 209.809 264.711 210.311 264.711C210.805 264.711 211.238 264.61 211.609 264.408C211.987 264.2 212.299 263.917 212.547 263.559C212.794 263.201 212.98 262.79 213.104 262.328C213.234 261.859 213.299 261.361 213.299 260.834V260.609C213.299 260.089 213.234 259.597 213.104 259.135C212.98 258.666 212.791 258.253 212.537 257.895C212.29 257.53 211.977 257.243 211.6 257.035C211.229 256.827 210.792 256.723 210.291 256.723C209.796 256.723 209.36 256.827 208.982 257.035C208.611 257.243 208.299 257.53 208.045 257.895C207.798 258.253 207.612 258.666 207.488 259.135C207.365 259.597 207.303 260.089 207.303 260.609ZM219.344 251V266H217.527V251H219.344ZM228.904 263.949V251H230.721V266H229.061L228.904 263.949ZM221.795 260.834V260.629C221.795 259.822 221.893 259.089 222.088 258.432C222.29 257.768 222.573 257.198 222.938 256.723C223.309 256.247 223.748 255.883 224.256 255.629C224.77 255.368 225.343 255.238 225.975 255.238C226.639 255.238 227.218 255.355 227.713 255.59C228.214 255.818 228.637 256.153 228.982 256.596C229.334 257.032 229.611 257.559 229.812 258.178C230.014 258.796 230.154 259.496 230.232 260.277V261.176C230.161 261.951 230.021 262.647 229.812 263.266C229.611 263.884 229.334 264.411 228.982 264.848C228.637 265.284 228.214 265.619 227.713 265.854C227.212 266.081 226.626 266.195 225.955 266.195C225.337 266.195 224.77 266.062 224.256 265.795C223.748 265.528 223.309 265.154 222.938 264.672C222.573 264.19 222.29 263.624 222.088 262.973C221.893 262.315 221.795 261.602 221.795 260.834ZM223.611 260.629V260.834C223.611 261.361 223.663 261.856 223.768 262.318C223.878 262.781 224.048 263.188 224.275 263.539C224.503 263.891 224.793 264.167 225.145 264.369C225.496 264.564 225.916 264.662 226.404 264.662C227.003 264.662 227.495 264.535 227.879 264.281C228.27 264.027 228.582 263.692 228.816 263.275C229.051 262.859 229.233 262.406 229.363 261.918V259.564C229.285 259.206 229.171 258.861 229.021 258.529C228.878 258.191 228.689 257.891 228.455 257.631C228.227 257.364 227.944 257.152 227.605 256.996C227.273 256.84 226.88 256.762 226.424 256.762C225.929 256.762 225.503 256.866 225.145 257.074C224.793 257.276 224.503 257.556 224.275 257.914C224.048 258.266 223.878 258.676 223.768 259.145C223.663 259.607 223.611 260.102 223.611 260.629ZM237.918 266.195C237.182 266.195 236.515 266.072 235.916 265.824C235.324 265.57 234.812 265.215 234.383 264.76C233.96 264.304 233.634 263.764 233.406 263.139C233.178 262.514 233.064 261.83 233.064 261.088V260.678C233.064 259.818 233.191 259.053 233.445 258.383C233.699 257.706 234.044 257.133 234.48 256.664C234.917 256.195 235.411 255.84 235.965 255.6C236.518 255.359 237.091 255.238 237.684 255.238C238.439 255.238 239.09 255.368 239.637 255.629C240.19 255.889 240.643 256.254 240.994 256.723C241.346 257.185 241.606 257.732 241.775 258.363C241.945 258.988 242.029 259.672 242.029 260.414V261.225H234.139V259.75H240.223V259.613C240.197 259.145 240.099 258.689 239.93 258.246C239.767 257.803 239.507 257.439 239.148 257.152C238.79 256.866 238.302 256.723 237.684 256.723C237.273 256.723 236.896 256.811 236.551 256.986C236.206 257.156 235.91 257.41 235.662 257.748C235.415 258.087 235.223 258.5 235.086 258.988C234.949 259.477 234.881 260.04 234.881 260.678V261.088C234.881 261.589 234.949 262.061 235.086 262.504C235.229 262.94 235.434 263.324 235.701 263.656C235.975 263.988 236.303 264.249 236.688 264.438C237.078 264.626 237.521 264.721 238.016 264.721C238.654 264.721 239.194 264.59 239.637 264.33C240.079 264.07 240.467 263.721 240.799 263.285L241.893 264.154C241.665 264.499 241.375 264.828 241.023 265.141C240.672 265.453 240.239 265.707 239.725 265.902C239.217 266.098 238.615 266.195 237.918 266.195ZM245.945 257.094V266H244.139V255.434H245.896L245.945 257.094ZM249.246 255.375L249.236 257.055C249.087 257.022 248.943 257.003 248.807 256.996C248.676 256.983 248.527 256.977 248.357 256.977C247.941 256.977 247.573 257.042 247.254 257.172C246.935 257.302 246.665 257.484 246.443 257.719C246.222 257.953 246.046 258.233 245.916 258.559C245.792 258.878 245.711 259.229 245.672 259.613L245.164 259.906C245.164 259.268 245.226 258.669 245.35 258.109C245.48 257.549 245.678 257.055 245.945 256.625C246.212 256.189 246.551 255.85 246.961 255.609C247.378 255.362 247.872 255.238 248.445 255.238C248.576 255.238 248.725 255.255 248.895 255.287C249.064 255.313 249.181 255.342 249.246 255.375ZM257.84 255.434V266H256.023V255.434H257.84ZM255.887 252.631C255.887 252.338 255.975 252.09 256.15 251.889C256.333 251.687 256.6 251.586 256.951 251.586C257.296 251.586 257.56 251.687 257.742 251.889C257.931 252.09 258.025 252.338 258.025 252.631C258.025 252.911 257.931 253.152 257.742 253.354C257.56 253.549 257.296 253.646 256.951 253.646C256.6 253.646 256.333 253.549 256.15 253.354C255.975 253.152 255.887 252.911 255.887 252.631ZM262.537 257.533V266H260.721V255.434H262.439L262.537 257.533ZM262.166 260.316L261.326 260.287C261.333 259.564 261.427 258.897 261.609 258.285C261.792 257.667 262.062 257.13 262.42 256.674C262.778 256.218 263.224 255.867 263.758 255.619C264.292 255.365 264.91 255.238 265.613 255.238C266.108 255.238 266.564 255.31 266.98 255.453C267.397 255.59 267.758 255.808 268.064 256.107C268.37 256.407 268.608 256.791 268.777 257.26C268.947 257.729 269.031 258.295 269.031 258.959V266H267.225V259.047C267.225 258.493 267.13 258.051 266.941 257.719C266.759 257.387 266.499 257.146 266.16 256.996C265.822 256.84 265.424 256.762 264.969 256.762C264.435 256.762 263.989 256.856 263.631 257.045C263.273 257.234 262.986 257.494 262.771 257.826C262.557 258.158 262.4 258.539 262.303 258.969C262.212 259.392 262.166 259.841 262.166 260.316ZM269.012 259.32L267.801 259.691C267.807 259.112 267.902 258.555 268.084 258.021C268.273 257.488 268.543 257.012 268.895 256.596C269.253 256.179 269.692 255.85 270.213 255.609C270.734 255.362 271.329 255.238 272 255.238C272.566 255.238 273.068 255.313 273.504 255.463C273.947 255.613 274.318 255.844 274.617 256.156C274.923 256.462 275.154 256.856 275.311 257.338C275.467 257.82 275.545 258.393 275.545 259.057V266H273.729V259.037C273.729 258.445 273.634 257.986 273.445 257.66C273.263 257.328 273.003 257.097 272.664 256.967C272.332 256.83 271.935 256.762 271.473 256.762C271.076 256.762 270.724 256.83 270.418 256.967C270.112 257.104 269.855 257.292 269.646 257.533C269.438 257.768 269.279 258.038 269.168 258.344C269.064 258.65 269.012 258.975 269.012 259.32ZM284.51 264.193V258.754C284.51 258.337 284.425 257.976 284.256 257.67C284.093 257.357 283.846 257.117 283.514 256.947C283.182 256.778 282.771 256.693 282.283 256.693C281.827 256.693 281.427 256.771 281.082 256.928C280.743 257.084 280.477 257.289 280.281 257.543C280.092 257.797 279.998 258.07 279.998 258.363H278.191C278.191 257.986 278.289 257.611 278.484 257.24C278.68 256.869 278.96 256.534 279.324 256.234C279.695 255.928 280.138 255.688 280.652 255.512C281.173 255.329 281.753 255.238 282.391 255.238C283.159 255.238 283.836 255.368 284.422 255.629C285.014 255.889 285.477 256.283 285.809 256.811C286.147 257.331 286.316 257.986 286.316 258.773V263.695C286.316 264.047 286.346 264.421 286.404 264.818C286.469 265.215 286.564 265.557 286.688 265.844V266H284.803C284.712 265.792 284.64 265.515 284.588 265.17C284.536 264.818 284.51 264.493 284.51 264.193ZM284.822 259.594L284.842 260.863H283.016C282.501 260.863 282.042 260.906 281.639 260.99C281.235 261.068 280.896 261.189 280.623 261.352C280.35 261.514 280.141 261.719 279.998 261.967C279.855 262.208 279.783 262.491 279.783 262.816C279.783 263.148 279.858 263.451 280.008 263.725C280.158 263.998 280.382 264.216 280.682 264.379C280.988 264.535 281.362 264.613 281.805 264.613C282.358 264.613 282.846 264.496 283.27 264.262C283.693 264.027 284.028 263.741 284.275 263.402C284.529 263.064 284.666 262.735 284.686 262.416L285.457 263.285C285.411 263.559 285.288 263.861 285.086 264.193C284.884 264.525 284.614 264.844 284.275 265.15C283.943 265.45 283.546 265.701 283.084 265.902C282.628 266.098 282.114 266.195 281.541 266.195C280.825 266.195 280.197 266.055 279.656 265.775C279.122 265.495 278.706 265.121 278.406 264.652C278.113 264.177 277.967 263.646 277.967 263.061C277.967 262.494 278.077 261.996 278.299 261.566C278.52 261.13 278.839 260.769 279.256 260.482C279.673 260.189 280.174 259.968 280.76 259.818C281.346 259.669 282 259.594 282.723 259.594H284.822ZM296.004 255.434H297.645V265.775C297.645 266.706 297.456 267.501 297.078 268.158C296.701 268.816 296.173 269.314 295.496 269.652C294.826 269.997 294.051 270.17 293.172 270.17C292.807 270.17 292.378 270.111 291.883 269.994C291.395 269.883 290.913 269.691 290.438 269.418C289.969 269.151 289.575 268.79 289.256 268.334L290.203 267.26C290.646 267.794 291.108 268.165 291.59 268.373C292.078 268.581 292.56 268.686 293.035 268.686C293.608 268.686 294.103 268.578 294.52 268.363C294.936 268.148 295.258 267.829 295.486 267.406C295.721 266.99 295.838 266.475 295.838 265.863V257.758L296.004 255.434ZM288.729 260.834V260.629C288.729 259.822 288.823 259.089 289.012 258.432C289.207 257.768 289.484 257.198 289.842 256.723C290.206 256.247 290.646 255.883 291.16 255.629C291.674 255.368 292.254 255.238 292.898 255.238C293.562 255.238 294.142 255.355 294.637 255.59C295.138 255.818 295.561 256.153 295.906 256.596C296.258 257.032 296.535 257.559 296.736 258.178C296.938 258.796 297.078 259.496 297.156 260.277V261.176C297.085 261.951 296.945 262.647 296.736 263.266C296.535 263.884 296.258 264.411 295.906 264.848C295.561 265.284 295.138 265.619 294.637 265.854C294.135 266.081 293.549 266.195 292.879 266.195C292.247 266.195 291.674 266.062 291.16 265.795C290.652 265.528 290.216 265.154 289.852 264.672C289.487 264.19 289.207 263.624 289.012 262.973C288.823 262.315 288.729 261.602 288.729 260.834ZM290.535 260.629V260.834C290.535 261.361 290.587 261.856 290.691 262.318C290.802 262.781 290.968 263.188 291.189 263.539C291.417 263.891 291.707 264.167 292.059 264.369C292.41 264.564 292.83 264.662 293.318 264.662C293.917 264.662 294.412 264.535 294.803 264.281C295.193 264.027 295.503 263.692 295.73 263.275C295.965 262.859 296.147 262.406 296.277 261.918V259.564C296.206 259.206 296.095 258.861 295.945 258.529C295.802 258.191 295.613 257.891 295.379 257.631C295.151 257.364 294.868 257.152 294.529 256.996C294.191 256.84 293.794 256.762 293.338 256.762C292.843 256.762 292.417 256.866 292.059 257.074C291.707 257.276 291.417 257.556 291.189 257.914C290.968 258.266 290.802 258.676 290.691 259.145C290.587 259.607 290.535 260.102 290.535 260.629ZM304.773 266.195C304.038 266.195 303.37 266.072 302.771 265.824C302.179 265.57 301.668 265.215 301.238 264.76C300.815 264.304 300.49 263.764 300.262 263.139C300.034 262.514 299.92 261.83 299.92 261.088V260.678C299.92 259.818 300.047 259.053 300.301 258.383C300.555 257.706 300.9 257.133 301.336 256.664C301.772 256.195 302.267 255.84 302.82 255.6C303.374 255.359 303.947 255.238 304.539 255.238C305.294 255.238 305.945 255.368 306.492 255.629C307.046 255.889 307.498 256.254 307.85 256.723C308.201 257.185 308.462 257.732 308.631 258.363C308.8 258.988 308.885 259.672 308.885 260.414V261.225H300.994V259.75H307.078V259.613C307.052 259.145 306.954 258.689 306.785 258.246C306.622 257.803 306.362 257.439 306.004 257.152C305.646 256.866 305.158 256.723 304.539 256.723C304.129 256.723 303.751 256.811 303.406 256.986C303.061 257.156 302.765 257.41 302.518 257.748C302.27 258.087 302.078 258.5 301.941 258.988C301.805 259.477 301.736 260.04 301.736 260.678V261.088C301.736 261.589 301.805 262.061 301.941 262.504C302.085 262.94 302.29 263.324 302.557 263.656C302.83 263.988 303.159 264.249 303.543 264.438C303.934 264.626 304.376 264.721 304.871 264.721C305.509 264.721 306.049 264.59 306.492 264.33C306.935 264.07 307.322 263.721 307.654 263.285L308.748 264.154C308.52 264.499 308.23 264.828 307.879 265.141C307.527 265.453 307.094 265.707 306.58 265.902C306.072 266.098 305.47 266.195 304.773 266.195ZM311.023 265.043C311.023 264.737 311.118 264.48 311.307 264.271C311.502 264.057 311.782 263.949 312.146 263.949C312.511 263.949 312.788 264.057 312.977 264.271C313.172 264.48 313.27 264.737 313.27 265.043C313.27 265.342 313.172 265.596 312.977 265.805C312.788 266.013 312.511 266.117 312.146 266.117C311.782 266.117 311.502 266.013 311.307 265.805C311.118 265.596 311.023 265.342 311.023 265.043ZM106.004 283.424H102.205V281.891H106.004C106.74 281.891 107.335 281.773 107.791 281.539C108.247 281.305 108.579 280.979 108.787 280.562C109.002 280.146 109.109 279.671 109.109 279.137C109.109 278.648 109.002 278.189 108.787 277.76C108.579 277.33 108.247 276.985 107.791 276.725C107.335 276.458 106.74 276.324 106.004 276.324H102.645V289H100.76V274.781H106.004C107.078 274.781 107.986 274.967 108.729 275.338C109.471 275.709 110.034 276.223 110.418 276.881C110.802 277.532 110.994 278.277 110.994 279.117C110.994 280.029 110.802 280.807 110.418 281.451C110.034 282.096 109.471 282.587 108.729 282.926C107.986 283.258 107.078 283.424 106.004 283.424ZM119.568 286.559V278.434H121.385V289H119.656L119.568 286.559ZM119.91 284.332L120.662 284.312C120.662 285.016 120.587 285.667 120.438 286.266C120.294 286.858 120.06 287.372 119.734 287.809C119.409 288.245 118.982 288.587 118.455 288.834C117.928 289.075 117.286 289.195 116.531 289.195C116.017 289.195 115.545 289.12 115.115 288.971C114.692 288.821 114.327 288.59 114.021 288.277C113.715 287.965 113.478 287.558 113.309 287.057C113.146 286.555 113.064 285.953 113.064 285.25V278.434H114.871V285.27C114.871 285.745 114.923 286.139 115.027 286.451C115.138 286.757 115.285 287.001 115.467 287.184C115.656 287.359 115.864 287.483 116.092 287.555C116.326 287.626 116.567 287.662 116.814 287.662C117.583 287.662 118.191 287.516 118.641 287.223C119.09 286.923 119.412 286.523 119.607 286.021C119.809 285.514 119.91 284.951 119.91 284.332ZM128.562 278.434V279.82H122.85V278.434H128.562ZM124.783 275.865H126.59V286.383C126.59 286.741 126.645 287.011 126.756 287.193C126.867 287.376 127.01 287.496 127.186 287.555C127.361 287.613 127.55 287.643 127.752 287.643C127.902 287.643 128.058 287.63 128.221 287.604C128.39 287.571 128.517 287.545 128.602 287.525L128.611 289C128.468 289.046 128.279 289.088 128.045 289.127C127.817 289.173 127.54 289.195 127.215 289.195C126.772 289.195 126.365 289.107 125.994 288.932C125.623 288.756 125.327 288.463 125.105 288.053C124.891 287.636 124.783 287.076 124.783 286.373V275.865ZM141.873 287.193V281.754C141.873 281.337 141.788 280.976 141.619 280.67C141.456 280.357 141.209 280.117 140.877 279.947C140.545 279.778 140.135 279.693 139.646 279.693C139.191 279.693 138.79 279.771 138.445 279.928C138.107 280.084 137.84 280.289 137.645 280.543C137.456 280.797 137.361 281.07 137.361 281.363H135.555C135.555 280.986 135.652 280.611 135.848 280.24C136.043 279.869 136.323 279.534 136.688 279.234C137.059 278.928 137.501 278.688 138.016 278.512C138.536 278.329 139.116 278.238 139.754 278.238C140.522 278.238 141.199 278.368 141.785 278.629C142.378 278.889 142.84 279.283 143.172 279.811C143.51 280.331 143.68 280.986 143.68 281.773V286.695C143.68 287.047 143.709 287.421 143.768 287.818C143.833 288.215 143.927 288.557 144.051 288.844V289H142.166C142.075 288.792 142.003 288.515 141.951 288.17C141.899 287.818 141.873 287.493 141.873 287.193ZM142.186 282.594L142.205 283.863H140.379C139.865 283.863 139.406 283.906 139.002 283.99C138.598 284.068 138.26 284.189 137.986 284.352C137.713 284.514 137.505 284.719 137.361 284.967C137.218 285.208 137.146 285.491 137.146 285.816C137.146 286.148 137.221 286.451 137.371 286.725C137.521 286.998 137.745 287.216 138.045 287.379C138.351 287.535 138.725 287.613 139.168 287.613C139.721 287.613 140.21 287.496 140.633 287.262C141.056 287.027 141.391 286.741 141.639 286.402C141.893 286.064 142.029 285.735 142.049 285.416L142.82 286.285C142.775 286.559 142.651 286.861 142.449 287.193C142.247 287.525 141.977 287.844 141.639 288.15C141.307 288.45 140.91 288.701 140.447 288.902C139.992 289.098 139.477 289.195 138.904 289.195C138.188 289.195 137.56 289.055 137.02 288.775C136.486 288.495 136.069 288.121 135.77 287.652C135.477 287.177 135.33 286.646 135.33 286.061C135.33 285.494 135.441 284.996 135.662 284.566C135.883 284.13 136.202 283.769 136.619 283.482C137.036 283.189 137.537 282.968 138.123 282.818C138.709 282.669 139.363 282.594 140.086 282.594H142.186ZM148.328 280.689V289H146.521V278.434H148.23L148.328 280.689ZM147.898 283.316L147.146 283.287C147.153 282.564 147.26 281.897 147.469 281.285C147.677 280.667 147.97 280.13 148.348 279.674C148.725 279.218 149.174 278.867 149.695 278.619C150.223 278.365 150.805 278.238 151.443 278.238C151.964 278.238 152.433 278.31 152.85 278.453C153.266 278.59 153.621 278.811 153.914 279.117C154.214 279.423 154.441 279.82 154.598 280.309C154.754 280.79 154.832 281.38 154.832 282.076V289H153.016V282.057C153.016 281.503 152.934 281.061 152.771 280.729C152.609 280.39 152.371 280.146 152.059 279.996C151.746 279.84 151.362 279.762 150.906 279.762C150.457 279.762 150.047 279.856 149.676 280.045C149.311 280.234 148.995 280.494 148.729 280.826C148.468 281.158 148.263 281.539 148.113 281.969C147.97 282.392 147.898 282.841 147.898 283.316ZM164.5 278.434V289H162.684V278.434H164.5ZM162.547 275.631C162.547 275.338 162.635 275.09 162.811 274.889C162.993 274.687 163.26 274.586 163.611 274.586C163.956 274.586 164.22 274.687 164.402 274.889C164.591 275.09 164.686 275.338 164.686 275.631C164.686 275.911 164.591 276.152 164.402 276.354C164.22 276.549 163.956 276.646 163.611 276.646C163.26 276.646 162.993 276.549 162.811 276.354C162.635 276.152 162.547 275.911 162.547 275.631ZM169.197 280.533V289H167.381V278.434H169.1L169.197 280.533ZM168.826 283.316L167.986 283.287C167.993 282.564 168.087 281.897 168.27 281.285C168.452 280.667 168.722 280.13 169.08 279.674C169.438 279.218 169.884 278.867 170.418 278.619C170.952 278.365 171.57 278.238 172.273 278.238C172.768 278.238 173.224 278.31 173.641 278.453C174.057 278.59 174.419 278.808 174.725 279.107C175.031 279.407 175.268 279.791 175.438 280.26C175.607 280.729 175.691 281.295 175.691 281.959V289H173.885V282.047C173.885 281.493 173.79 281.051 173.602 280.719C173.419 280.387 173.159 280.146 172.82 279.996C172.482 279.84 172.085 279.762 171.629 279.762C171.095 279.762 170.649 279.856 170.291 280.045C169.933 280.234 169.646 280.494 169.432 280.826C169.217 281.158 169.061 281.539 168.963 281.969C168.872 282.392 168.826 282.841 168.826 283.316ZM175.672 282.32L174.461 282.691C174.467 282.112 174.562 281.555 174.744 281.021C174.933 280.488 175.203 280.012 175.555 279.596C175.913 279.179 176.352 278.85 176.873 278.609C177.394 278.362 177.99 278.238 178.66 278.238C179.227 278.238 179.728 278.313 180.164 278.463C180.607 278.613 180.978 278.844 181.277 279.156C181.583 279.462 181.814 279.856 181.971 280.338C182.127 280.82 182.205 281.393 182.205 282.057V289H180.389V282.037C180.389 281.445 180.294 280.986 180.105 280.66C179.923 280.328 179.663 280.097 179.324 279.967C178.992 279.83 178.595 279.762 178.133 279.762C177.736 279.762 177.384 279.83 177.078 279.967C176.772 280.104 176.515 280.292 176.307 280.533C176.098 280.768 175.939 281.038 175.828 281.344C175.724 281.65 175.672 281.975 175.672 282.32ZM191.17 287.193V281.754C191.17 281.337 191.085 280.976 190.916 280.67C190.753 280.357 190.506 280.117 190.174 279.947C189.842 279.778 189.432 279.693 188.943 279.693C188.488 279.693 188.087 279.771 187.742 279.928C187.404 280.084 187.137 280.289 186.941 280.543C186.753 280.797 186.658 281.07 186.658 281.363H184.852C184.852 280.986 184.949 280.611 185.145 280.24C185.34 279.869 185.62 279.534 185.984 279.234C186.355 278.928 186.798 278.688 187.312 278.512C187.833 278.329 188.413 278.238 189.051 278.238C189.819 278.238 190.496 278.368 191.082 278.629C191.674 278.889 192.137 279.283 192.469 279.811C192.807 280.331 192.977 280.986 192.977 281.773V286.695C192.977 287.047 193.006 287.421 193.064 287.818C193.13 288.215 193.224 288.557 193.348 288.844V289H191.463C191.372 288.792 191.3 288.515 191.248 288.17C191.196 287.818 191.17 287.493 191.17 287.193ZM191.482 282.594L191.502 283.863H189.676C189.161 283.863 188.702 283.906 188.299 283.99C187.895 284.068 187.557 284.189 187.283 284.352C187.01 284.514 186.801 284.719 186.658 284.967C186.515 285.208 186.443 285.491 186.443 285.816C186.443 286.148 186.518 286.451 186.668 286.725C186.818 286.998 187.042 287.216 187.342 287.379C187.648 287.535 188.022 287.613 188.465 287.613C189.018 287.613 189.507 287.496 189.93 287.262C190.353 287.027 190.688 286.741 190.936 286.402C191.189 286.064 191.326 285.735 191.346 285.416L192.117 286.285C192.072 286.559 191.948 286.861 191.746 287.193C191.544 287.525 191.274 287.844 190.936 288.15C190.604 288.45 190.206 288.701 189.744 288.902C189.288 289.098 188.774 289.195 188.201 289.195C187.485 289.195 186.857 289.055 186.316 288.775C185.783 288.495 185.366 288.121 185.066 287.652C184.773 287.177 184.627 286.646 184.627 286.061C184.627 285.494 184.738 284.996 184.959 284.566C185.18 284.13 185.499 283.769 185.916 283.482C186.333 283.189 186.834 282.968 187.42 282.818C188.006 282.669 188.66 282.594 189.383 282.594H191.482ZM202.664 278.434H204.305V288.775C204.305 289.706 204.116 290.501 203.738 291.158C203.361 291.816 202.833 292.314 202.156 292.652C201.486 292.997 200.711 293.17 199.832 293.17C199.467 293.17 199.038 293.111 198.543 292.994C198.055 292.883 197.573 292.691 197.098 292.418C196.629 292.151 196.235 291.79 195.916 291.334L196.863 290.26C197.306 290.794 197.768 291.165 198.25 291.373C198.738 291.581 199.22 291.686 199.695 291.686C200.268 291.686 200.763 291.578 201.18 291.363C201.596 291.148 201.919 290.829 202.146 290.406C202.381 289.99 202.498 289.475 202.498 288.863V280.758L202.664 278.434ZM195.389 283.834V283.629C195.389 282.822 195.483 282.089 195.672 281.432C195.867 280.768 196.144 280.198 196.502 279.723C196.867 279.247 197.306 278.883 197.82 278.629C198.335 278.368 198.914 278.238 199.559 278.238C200.223 278.238 200.802 278.355 201.297 278.59C201.798 278.818 202.221 279.153 202.566 279.596C202.918 280.032 203.195 280.559 203.396 281.178C203.598 281.796 203.738 282.496 203.816 283.277V284.176C203.745 284.951 203.605 285.647 203.396 286.266C203.195 286.884 202.918 287.411 202.566 287.848C202.221 288.284 201.798 288.619 201.297 288.854C200.796 289.081 200.21 289.195 199.539 289.195C198.908 289.195 198.335 289.062 197.82 288.795C197.312 288.528 196.876 288.154 196.512 287.672C196.147 287.19 195.867 286.624 195.672 285.973C195.483 285.315 195.389 284.602 195.389 283.834ZM197.195 283.629V283.834C197.195 284.361 197.247 284.856 197.352 285.318C197.462 285.781 197.628 286.188 197.85 286.539C198.077 286.891 198.367 287.167 198.719 287.369C199.07 287.564 199.49 287.662 199.979 287.662C200.577 287.662 201.072 287.535 201.463 287.281C201.854 287.027 202.163 286.692 202.391 286.275C202.625 285.859 202.807 285.406 202.938 284.918V282.564C202.866 282.206 202.755 281.861 202.605 281.529C202.462 281.191 202.273 280.891 202.039 280.631C201.811 280.364 201.528 280.152 201.189 279.996C200.851 279.84 200.454 279.762 199.998 279.762C199.503 279.762 199.077 279.866 198.719 280.074C198.367 280.276 198.077 280.556 197.85 280.914C197.628 281.266 197.462 281.676 197.352 282.145C197.247 282.607 197.195 283.102 197.195 283.629ZM211.434 289.195C210.698 289.195 210.031 289.072 209.432 288.824C208.839 288.57 208.328 288.215 207.898 287.76C207.475 287.304 207.15 286.764 206.922 286.139C206.694 285.514 206.58 284.83 206.58 284.088V283.678C206.58 282.818 206.707 282.053 206.961 281.383C207.215 280.706 207.56 280.133 207.996 279.664C208.432 279.195 208.927 278.84 209.48 278.6C210.034 278.359 210.607 278.238 211.199 278.238C211.954 278.238 212.605 278.368 213.152 278.629C213.706 278.889 214.158 279.254 214.51 279.723C214.861 280.185 215.122 280.732 215.291 281.363C215.46 281.988 215.545 282.672 215.545 283.414V284.225H207.654V282.75H213.738V282.613C213.712 282.145 213.615 281.689 213.445 281.246C213.283 280.803 213.022 280.439 212.664 280.152C212.306 279.866 211.818 279.723 211.199 279.723C210.789 279.723 210.411 279.811 210.066 279.986C209.721 280.156 209.425 280.41 209.178 280.748C208.93 281.087 208.738 281.5 208.602 281.988C208.465 282.477 208.396 283.04 208.396 283.678V284.088C208.396 284.589 208.465 285.061 208.602 285.504C208.745 285.94 208.95 286.324 209.217 286.656C209.49 286.988 209.819 287.249 210.203 287.438C210.594 287.626 211.036 287.721 211.531 287.721C212.169 287.721 212.71 287.59 213.152 287.33C213.595 287.07 213.982 286.721 214.314 286.285L215.408 287.154C215.18 287.499 214.891 287.828 214.539 288.141C214.188 288.453 213.755 288.707 213.24 288.902C212.732 289.098 212.13 289.195 211.434 289.195ZM222.137 283.834V283.609C222.137 282.848 222.247 282.141 222.469 281.49C222.69 280.833 223.009 280.263 223.426 279.781C223.842 279.293 224.347 278.915 224.939 278.648C225.532 278.375 226.196 278.238 226.932 278.238C227.674 278.238 228.341 278.375 228.934 278.648C229.533 278.915 230.04 279.293 230.457 279.781C230.88 280.263 231.202 280.833 231.424 281.49C231.645 282.141 231.756 282.848 231.756 283.609V283.834C231.756 284.596 231.645 285.302 231.424 285.953C231.202 286.604 230.88 287.174 230.457 287.662C230.04 288.144 229.536 288.521 228.943 288.795C228.357 289.062 227.693 289.195 226.951 289.195C226.209 289.195 225.542 289.062 224.949 288.795C224.357 288.521 223.849 288.144 223.426 287.662C223.009 287.174 222.69 286.604 222.469 285.953C222.247 285.302 222.137 284.596 222.137 283.834ZM223.943 283.609V283.834C223.943 284.361 224.005 284.859 224.129 285.328C224.253 285.79 224.438 286.201 224.686 286.559C224.939 286.917 225.255 287.2 225.633 287.408C226.01 287.61 226.45 287.711 226.951 287.711C227.446 287.711 227.879 287.61 228.25 287.408C228.628 287.2 228.94 286.917 229.188 286.559C229.435 286.201 229.62 285.79 229.744 285.328C229.874 284.859 229.939 284.361 229.939 283.834V283.609C229.939 283.089 229.874 282.597 229.744 282.135C229.62 281.666 229.432 281.253 229.178 280.895C228.93 280.53 228.618 280.243 228.24 280.035C227.869 279.827 227.433 279.723 226.932 279.723C226.437 279.723 226.001 279.827 225.623 280.035C225.252 280.243 224.939 280.53 224.686 280.895C224.438 281.253 224.253 281.666 224.129 282.135C224.005 282.597 223.943 283.089 223.943 283.609ZM236.717 289H234.91V277.32C234.91 276.559 235.047 275.917 235.32 275.396C235.6 274.869 236.001 274.472 236.521 274.205C237.042 273.932 237.661 273.795 238.377 273.795C238.585 273.795 238.794 273.808 239.002 273.834C239.217 273.86 239.425 273.899 239.627 273.951L239.529 275.426C239.393 275.393 239.236 275.37 239.061 275.357C238.891 275.344 238.722 275.338 238.553 275.338C238.169 275.338 237.837 275.416 237.557 275.572C237.283 275.722 237.075 275.943 236.932 276.236C236.788 276.529 236.717 276.891 236.717 277.32V289ZM238.963 278.434V279.82H233.24V278.434H238.963ZM248.904 287.906L251.844 278.434H253.777L249.539 290.631C249.441 290.891 249.311 291.171 249.148 291.471C248.992 291.777 248.79 292.066 248.543 292.34C248.296 292.613 247.996 292.835 247.645 293.004C247.299 293.18 246.886 293.268 246.404 293.268C246.261 293.268 246.079 293.248 245.857 293.209C245.636 293.17 245.48 293.137 245.389 293.111L245.379 291.646C245.431 291.653 245.512 291.66 245.623 291.666C245.74 291.679 245.822 291.686 245.867 291.686C246.277 291.686 246.626 291.63 246.912 291.52C247.199 291.415 247.439 291.236 247.635 290.982C247.837 290.735 248.009 290.393 248.152 289.957L248.904 287.906ZM246.746 278.434L249.49 286.637L249.959 288.541L248.66 289.205L244.773 278.434H246.746ZM254.773 283.834V283.609C254.773 282.848 254.884 282.141 255.105 281.49C255.327 280.833 255.646 280.263 256.062 279.781C256.479 279.293 256.984 278.915 257.576 278.648C258.169 278.375 258.833 278.238 259.568 278.238C260.311 278.238 260.978 278.375 261.57 278.648C262.169 278.915 262.677 279.293 263.094 279.781C263.517 280.263 263.839 280.833 264.061 281.49C264.282 282.141 264.393 282.848 264.393 283.609V283.834C264.393 284.596 264.282 285.302 264.061 285.953C263.839 286.604 263.517 287.174 263.094 287.662C262.677 288.144 262.173 288.521 261.58 288.795C260.994 289.062 260.33 289.195 259.588 289.195C258.846 289.195 258.178 289.062 257.586 288.795C256.993 288.521 256.486 288.144 256.062 287.662C255.646 287.174 255.327 286.604 255.105 285.953C254.884 285.302 254.773 284.596 254.773 283.834ZM256.58 283.609V283.834C256.58 284.361 256.642 284.859 256.766 285.328C256.889 285.79 257.075 286.201 257.322 286.559C257.576 286.917 257.892 287.2 258.27 287.408C258.647 287.61 259.087 287.711 259.588 287.711C260.083 287.711 260.516 287.61 260.887 287.408C261.264 287.2 261.577 286.917 261.824 286.559C262.072 286.201 262.257 285.79 262.381 285.328C262.511 284.859 262.576 284.361 262.576 283.834V283.609C262.576 283.089 262.511 282.597 262.381 282.135C262.257 281.666 262.068 281.253 261.814 280.895C261.567 280.53 261.255 280.243 260.877 280.035C260.506 279.827 260.07 279.723 259.568 279.723C259.074 279.723 258.637 279.827 258.26 280.035C257.889 280.243 257.576 280.53 257.322 280.895C257.075 281.253 256.889 281.666 256.766 282.135C256.642 282.597 256.58 283.089 256.58 283.609ZM273.123 286.559V278.434H274.939V289H273.211L273.123 286.559ZM273.465 284.332L274.217 284.312C274.217 285.016 274.142 285.667 273.992 286.266C273.849 286.858 273.615 287.372 273.289 287.809C272.964 288.245 272.537 288.587 272.01 288.834C271.482 289.075 270.841 289.195 270.086 289.195C269.572 289.195 269.1 289.12 268.67 288.971C268.247 288.821 267.882 288.59 267.576 288.277C267.27 287.965 267.033 287.558 266.863 287.057C266.701 286.555 266.619 285.953 266.619 285.25V278.434H268.426V285.27C268.426 285.745 268.478 286.139 268.582 286.451C268.693 286.757 268.839 287.001 269.021 287.184C269.21 287.359 269.419 287.483 269.646 287.555C269.881 287.626 270.122 287.662 270.369 287.662C271.137 287.662 271.746 287.516 272.195 287.223C272.645 286.923 272.967 286.523 273.162 286.021C273.364 285.514 273.465 284.951 273.465 284.332ZM279.5 280.094V289H277.693V278.434H279.451L279.5 280.094ZM282.801 278.375L282.791 280.055C282.641 280.022 282.498 280.003 282.361 279.996C282.231 279.983 282.081 279.977 281.912 279.977C281.495 279.977 281.128 280.042 280.809 280.172C280.49 280.302 280.219 280.484 279.998 280.719C279.777 280.953 279.601 281.233 279.471 281.559C279.347 281.878 279.266 282.229 279.227 282.613L278.719 282.906C278.719 282.268 278.781 281.669 278.904 281.109C279.035 280.549 279.233 280.055 279.5 279.625C279.767 279.189 280.105 278.85 280.516 278.609C280.932 278.362 281.427 278.238 282 278.238C282.13 278.238 282.28 278.255 282.449 278.287C282.618 278.313 282.736 278.342 282.801 278.375ZM290.623 286.197C290.623 285.937 290.564 285.696 290.447 285.475C290.337 285.247 290.105 285.042 289.754 284.859C289.409 284.671 288.888 284.508 288.191 284.371C287.605 284.247 287.075 284.101 286.6 283.932C286.131 283.762 285.73 283.557 285.398 283.316C285.073 283.076 284.822 282.792 284.646 282.467C284.471 282.141 284.383 281.76 284.383 281.324C284.383 280.908 284.474 280.514 284.656 280.143C284.845 279.771 285.109 279.443 285.447 279.156C285.792 278.87 286.206 278.645 286.688 278.482C287.169 278.32 287.706 278.238 288.299 278.238C289.145 278.238 289.868 278.388 290.467 278.688C291.066 278.987 291.525 279.387 291.844 279.889C292.163 280.383 292.322 280.934 292.322 281.539H290.516C290.516 281.246 290.428 280.963 290.252 280.689C290.083 280.41 289.832 280.178 289.5 279.996C289.174 279.814 288.774 279.723 288.299 279.723C287.798 279.723 287.391 279.801 287.078 279.957C286.772 280.107 286.548 280.299 286.404 280.533C286.268 280.768 286.199 281.015 286.199 281.275C286.199 281.471 286.232 281.646 286.297 281.803C286.368 281.952 286.492 282.092 286.668 282.223C286.844 282.346 287.091 282.464 287.41 282.574C287.729 282.685 288.136 282.796 288.631 282.906C289.497 283.102 290.21 283.336 290.77 283.609C291.329 283.883 291.746 284.218 292.02 284.615C292.293 285.012 292.43 285.494 292.43 286.061C292.43 286.523 292.332 286.946 292.137 287.33C291.948 287.714 291.671 288.046 291.307 288.326C290.949 288.6 290.519 288.814 290.018 288.971C289.523 289.12 288.966 289.195 288.348 289.195C287.417 289.195 286.629 289.029 285.984 288.697C285.34 288.365 284.852 287.936 284.52 287.408C284.188 286.881 284.021 286.324 284.021 285.738H285.838C285.864 286.233 286.007 286.627 286.268 286.92C286.528 287.206 286.847 287.411 287.225 287.535C287.602 287.652 287.977 287.711 288.348 287.711C288.842 287.711 289.256 287.646 289.588 287.516C289.926 287.385 290.184 287.206 290.359 286.979C290.535 286.751 290.623 286.49 290.623 286.197ZM299.188 289.195C298.452 289.195 297.785 289.072 297.186 288.824C296.593 288.57 296.082 288.215 295.652 287.76C295.229 287.304 294.904 286.764 294.676 286.139C294.448 285.514 294.334 284.83 294.334 284.088V283.678C294.334 282.818 294.461 282.053 294.715 281.383C294.969 280.706 295.314 280.133 295.75 279.664C296.186 279.195 296.681 278.84 297.234 278.6C297.788 278.359 298.361 278.238 298.953 278.238C299.708 278.238 300.359 278.368 300.906 278.629C301.46 278.889 301.912 279.254 302.264 279.723C302.615 280.185 302.876 280.732 303.045 281.363C303.214 281.988 303.299 282.672 303.299 283.414V284.225H295.408V282.75H301.492V282.613C301.466 282.145 301.368 281.689 301.199 281.246C301.036 280.803 300.776 280.439 300.418 280.152C300.06 279.866 299.572 279.723 298.953 279.723C298.543 279.723 298.165 279.811 297.82 279.986C297.475 280.156 297.179 280.41 296.932 280.748C296.684 281.087 296.492 281.5 296.355 281.988C296.219 282.477 296.15 283.04 296.15 283.678V284.088C296.15 284.589 296.219 285.061 296.355 285.504C296.499 285.94 296.704 286.324 296.971 286.656C297.244 286.988 297.573 287.249 297.957 287.438C298.348 287.626 298.79 287.721 299.285 287.721C299.923 287.721 300.464 287.59 300.906 287.33C301.349 287.07 301.736 286.721 302.068 286.285L303.162 287.154C302.934 287.499 302.645 287.828 302.293 288.141C301.941 288.453 301.508 288.707 300.994 288.902C300.486 289.098 299.884 289.195 299.188 289.195ZM307.371 274V289H305.555V274H307.371ZM312.967 289H311.16V277.32C311.16 276.559 311.297 275.917 311.57 275.396C311.85 274.869 312.251 274.472 312.771 274.205C313.292 273.932 313.911 273.795 314.627 273.795C314.835 273.795 315.044 273.808 315.252 273.834C315.467 273.86 315.675 273.899 315.877 273.951L315.779 275.426C315.643 275.393 315.486 275.37 315.311 275.357C315.141 275.344 314.972 275.338 314.803 275.338C314.419 275.338 314.087 275.416 313.807 275.572C313.533 275.722 313.325 275.943 313.182 276.236C313.038 276.529 312.967 276.891 312.967 277.32V289ZM315.213 278.434V279.82H309.49V278.434H315.213ZM323.992 274V289H322.186V274H323.992ZM323.562 283.316L322.811 283.287C322.817 282.564 322.924 281.897 323.133 281.285C323.341 280.667 323.634 280.13 324.012 279.674C324.389 279.218 324.839 278.867 325.359 278.619C325.887 278.365 326.469 278.238 327.107 278.238C327.628 278.238 328.097 278.31 328.514 278.453C328.93 278.59 329.285 278.811 329.578 279.117C329.878 279.423 330.105 279.82 330.262 280.309C330.418 280.79 330.496 281.38 330.496 282.076V289H328.68V282.057C328.68 281.503 328.598 281.061 328.436 280.729C328.273 280.39 328.035 280.146 327.723 279.996C327.41 279.84 327.026 279.762 326.57 279.762C326.121 279.762 325.711 279.856 325.34 280.045C324.975 280.234 324.66 280.494 324.393 280.826C324.132 281.158 323.927 281.539 323.777 281.969C323.634 282.392 323.562 282.841 323.562 283.316ZM337.586 289.195C336.85 289.195 336.183 289.072 335.584 288.824C334.992 288.57 334.48 288.215 334.051 287.76C333.628 287.304 333.302 286.764 333.074 286.139C332.846 285.514 332.732 284.83 332.732 284.088V283.678C332.732 282.818 332.859 282.053 333.113 281.383C333.367 280.706 333.712 280.133 334.148 279.664C334.585 279.195 335.079 278.84 335.633 278.6C336.186 278.359 336.759 278.238 337.352 278.238C338.107 278.238 338.758 278.368 339.305 278.629C339.858 278.889 340.311 279.254 340.662 279.723C341.014 280.185 341.274 280.732 341.443 281.363C341.613 281.988 341.697 282.672 341.697 283.414V284.225H333.807V282.75H339.891V282.613C339.865 282.145 339.767 281.689 339.598 281.246C339.435 280.803 339.174 280.439 338.816 280.152C338.458 279.866 337.97 279.723 337.352 279.723C336.941 279.723 336.564 279.811 336.219 279.986C335.874 280.156 335.577 280.41 335.33 280.748C335.083 281.087 334.891 281.5 334.754 281.988C334.617 282.477 334.549 283.04 334.549 283.678V284.088C334.549 284.589 334.617 285.061 334.754 285.504C334.897 285.94 335.102 286.324 335.369 286.656C335.643 286.988 335.971 287.249 336.355 287.438C336.746 287.626 337.189 287.721 337.684 287.721C338.322 287.721 338.862 287.59 339.305 287.33C339.747 287.07 340.135 286.721 340.467 286.285L341.561 287.154C341.333 287.499 341.043 287.828 340.691 288.141C340.34 288.453 339.907 288.707 339.393 288.902C338.885 289.098 338.283 289.195 337.586 289.195ZM345.613 280.094V289H343.807V278.434H345.564L345.613 280.094ZM348.914 278.375L348.904 280.055C348.755 280.022 348.611 280.003 348.475 279.996C348.344 279.983 348.195 279.977 348.025 279.977C347.609 279.977 347.241 280.042 346.922 280.172C346.603 280.302 346.333 280.484 346.111 280.719C345.89 280.953 345.714 281.233 345.584 281.559C345.46 281.878 345.379 282.229 345.34 282.613L344.832 282.906C344.832 282.268 344.894 281.669 345.018 281.109C345.148 280.549 345.346 280.055 345.613 279.625C345.88 279.189 346.219 278.85 346.629 278.609C347.046 278.362 347.54 278.238 348.113 278.238C348.243 278.238 348.393 278.255 348.562 278.287C348.732 278.313 348.849 278.342 348.914 278.375ZM354.773 289.195C354.038 289.195 353.37 289.072 352.771 288.824C352.179 288.57 351.668 288.215 351.238 287.76C350.815 287.304 350.49 286.764 350.262 286.139C350.034 285.514 349.92 284.83 349.92 284.088V283.678C349.92 282.818 350.047 282.053 350.301 281.383C350.555 280.706 350.9 280.133 351.336 279.664C351.772 279.195 352.267 278.84 352.82 278.6C353.374 278.359 353.947 278.238 354.539 278.238C355.294 278.238 355.945 278.368 356.492 278.629C357.046 278.889 357.498 279.254 357.85 279.723C358.201 280.185 358.462 280.732 358.631 281.363C358.8 281.988 358.885 282.672 358.885 283.414V284.225H350.994V282.75H357.078V282.613C357.052 282.145 356.954 281.689 356.785 281.246C356.622 280.803 356.362 280.439 356.004 280.152C355.646 279.866 355.158 279.723 354.539 279.723C354.129 279.723 353.751 279.811 353.406 279.986C353.061 280.156 352.765 280.41 352.518 280.748C352.27 281.087 352.078 281.5 351.941 281.988C351.805 282.477 351.736 283.04 351.736 283.678V284.088C351.736 284.589 351.805 285.061 351.941 285.504C352.085 285.94 352.29 286.324 352.557 286.656C352.83 286.988 353.159 287.249 353.543 287.438C353.934 287.626 354.376 287.721 354.871 287.721C355.509 287.721 356.049 287.59 356.492 287.33C356.935 287.07 357.322 286.721 357.654 286.285L358.748 287.154C358.52 287.499 358.23 287.828 357.879 288.141C357.527 288.453 357.094 288.707 356.58 288.902C356.072 289.098 355.47 289.195 354.773 289.195ZM361.023 288.043C361.023 287.737 361.118 287.48 361.307 287.271C361.502 287.057 361.782 286.949 362.146 286.949C362.511 286.949 362.788 287.057 362.977 287.271C363.172 287.48 363.27 287.737 363.27 288.043C363.27 288.342 363.172 288.596 362.977 288.805C362.788 289.013 362.511 289.117 362.146 289.117C361.782 289.117 361.502 289.013 361.307 288.805C361.118 288.596 361.023 288.342 361.023 288.043Z" fill="white"/>
<circle cx="232" cy="199" r="28" stroke="white" stroke-width="2"/>
<path d="M222 205.5C223.5 207.5 226.9 210 232.5 210C238.1 210 241.5 207.5 243 205.5" stroke="white" stroke-width="2" stroke-linecap="round"/>
<circle cx="225.5" cy="193.5" r="2.5" fill="white"/>
<circle cx="238.5" cy="193.5" r="2.5" fill="white"/>
</svg>
